<?xml version="1.0" encoding="UTF-8"?><svg xmlns="http://www.w3.org/2000/svg" xmlns:xlink="http://www.w3.org/1999/xlink" contentScriptType="text/ecmascript" width="93.75" zoomAndPan="magnify" contentStyleType="text/css" viewBox="0 0 93.75 93.749996" height="93.749996" preserveAspectRatio="xMidYMid meet" version="1.0"><defs><clipPath id="clip-0"><path d="M 7 5 L 93.5 5 L 93.5 93.5 L 7 93.5 Z M 7 5 " clip-rule="nonzero"/></clipPath><clipPath id="clip-1"><path d="M 1.667969 0 L 90 0 L 90 92 L 1.667969 92 Z M 1.667969 0 " clip-rule="nonzero"/></clipPath></defs><g clip-path="url(#clip-0)"><path fill="rgb(92.549133%, 32.159424%, 10.198975%)" d="M 41.03125 61.914062 L 60.308594 61.914062 L 50.640625 30.972656 Z M 65.480469 78.519531 L 35.859375 78.519531 L 30.683594 95.183594 L 7.59375 95.183594 L 40.476562 5.972656 L 60.800781 5.972656 L 93.929688 95.183594 L 70.714844 95.183594 L 65.480469 78.519531 " fill-opacity="1" fill-rule="nonzero"/></g><g clip-path="url(#clip-1)"><path fill="rgb(3.919983%, 5.488586%, 16.079712%)" d="M 17.375 51.21875 C 17.265625 51.21875 17.160156 51.199219 17.050781 51.160156 C 16.570312 50.984375 16.328125 50.453125 16.503906 49.976562 L 16.925781 48.832031 C 17.101562 48.347656 17.632812 48.101562 18.113281 48.28125 C 18.597656 48.457031 18.84375 48.988281 18.667969 49.464844 L 18.242188 50.609375 C 18.109375 50.984375 17.75 51.21875 17.375 51.21875 Z M 37.339844 56.066406 L 54.09375 56.066406 L 45.691406 29.167969 Z M 55.355469 57.914062 L 36.082031 57.914062 C 35.789062 57.914062 35.507812 57.773438 35.335938 57.535156 C 35.160156 57.300781 35.105469 56.996094 35.195312 56.714844 L 44.800781 25.773438 C 44.921875 25.386719 45.28125 25.121094 45.683594 25.121094 L 45.6875 25.121094 C 46.09375 25.121094 46.453125 25.386719 46.574219 25.773438 L 56.242188 56.714844 C 56.328125 56.992188 56.28125 57.300781 56.101562 57.535156 C 55.929688 57.773438 55.652344 57.914062 55.355469 57.914062 Z M 88.980469 91.183594 L 65.761719 91.183594 C 65.359375 91.183594 65 90.917969 64.878906 90.535156 L 59.847656 74.515625 L 31.59375 74.515625 L 26.621094 90.53125 C 26.5 90.917969 26.140625 91.183594 25.734375 91.183594 L 2.640625 91.183594 C 2.335938 91.183594 2.050781 91.035156 1.878906 90.789062 C 1.703125 90.539062 1.664062 90.226562 1.769531 89.941406 L 14.03125 56.671875 C 14.207031 56.191406 14.742188 55.945312 15.222656 56.121094 C 15.707031 56.296875 15.953125 56.828125 15.777344 57.304688 L 3.96875 89.335938 L 25.050781 89.335938 L 30.019531 73.320312 C 30.140625 72.933594 30.5 72.667969 30.90625 72.667969 L 60.527344 72.667969 C 60.933594 72.667969 61.296875 72.933594 61.414062 73.316406 L 66.445312 89.335938 L 87.644531 89.335938 L 55.199219 1.972656 L 36.171875 1.972656 L 21.878906 40.753906 C 21.703125 41.234375 21.167969 41.476562 20.6875 41.300781 C 20.207031 41.128906 19.957031 40.597656 20.132812 40.117188 L 34.652344 0.730469 C 34.789062 0.367188 35.136719 0.125 35.523438 0.125 L 55.847656 0.125 C 56.238281 0.125 56.585938 0.367188 56.71875 0.726562 L 89.851562 89.9375 C 89.957031 90.222656 89.917969 90.539062 89.742188 90.785156 C 89.566406 91.035156 89.285156 91.183594 88.980469 91.183594 " fill-opacity="1" fill-rule="nonzero"/></g></svg>