<svg width="903" height="257" viewBox="0 0 903 257" fill="none" xmlns="http://www.w3.org/2000/svg">
<path d="M100.25 61.2326V143.293H120.6V111.943H165.26V143.293H185.61V57.9326H165.26V93.7926H120.6V55.7326L100.25 61.2326ZM228.266 131.853H267.866L273.256 143.293H294.706L252.686 55.7326L232.336 61.2326L191.746 143.293H213.196L242.896 79.0526L259.616 114.473H235.746L228.266 131.853ZM330.724 57.9326C306.414 57.9326 294.644 78.7226 294.644 99.8426C294.644 121.403 306.964 143.293 330.724 143.293H380.004L385.504 125.143H333.144C321.594 125.143 316.094 113.263 316.094 101.163C316.094 88.7326 321.924 76.0826 333.144 76.0826H380.004L385.504 57.9326H330.724ZM449.481 57.9326L414.721 90.6026V55.7326L394.371 61.2326V143.293H414.721V110.733L449.481 143.293H479.731L431.331 99.6226L477.531 57.9326H449.481Z" fill="url(#paint0_linear_1473_178)"/>
<rect opacity="0.8" x="495.292" y="40" width="318.708" height="119.071" fill="url(#paint1_linear_1473_178)"/>
<path d="M522.257 67.1559V141.756H540.757V113.256H581.357V141.756H599.857V64.1559H581.357V96.7559H540.757V62.1559L522.257 67.1559ZM677.435 110.956C677.435 122.056 669.835 126.656 654.435 126.656C638.535 126.656 630.935 122.356 630.935 110.956V62.1559L612.435 67.1559V110.956C612.435 132.856 630.335 143.456 653.535 143.456C677.435 143.456 695.935 133.556 695.935 110.956V64.1559H677.435V110.956ZM707.988 92.056V141.756H762.788C781.488 141.756 790.588 130.956 790.588 120.056C790.588 113.456 786.688 106.856 778.988 102.556C785.388 98.4559 788.588 92.4559 788.588 86.5559C788.588 75.4559 779.088 64.1559 760.788 64.1559H712.988L707.988 80.656H760.588C766.288 80.656 769.088 84.0559 769.088 87.5559C769.088 91.1559 766.188 94.7559 760.588 94.7559H726.488V87.0559L707.988 92.056ZM726.488 111.156H762.588C768.288 111.156 771.088 114.556 771.088 118.056C771.088 121.656 768.188 125.256 762.588 125.256H726.488V111.156Z" fill="#090909"/>
<path d="M376.168 212.445C386.398 212.445 391.458 206.01 391.458 199.52C391.458 192.92 386.288 186.32 376.168 186.32H350.978L348.228 195.395H376.058C379.193 195.395 380.733 197.375 380.733 199.355C380.733 201.39 379.138 203.425 376.058 203.425H367.368C351.693 203.425 347.293 219.925 347.293 219.925V229H388.818L391.568 219.925H357.853C357.853 219.87 359.338 212.445 367.478 212.445H376.168ZM405.428 207.66C405.428 198.42 409.773 194.9 418.518 194.9C426.988 194.9 431.333 198.64 431.333 207.66C431.333 216.68 426.988 220.42 418.518 220.42C409.773 220.42 405.428 216.9 405.428 207.66ZM442.058 207.66C442.058 192.37 431.168 185.66 418.023 185.66C405.263 185.66 394.703 192.81 394.703 207.66C394.703 222.51 405.263 229.66 418.023 229.66C431.168 229.66 442.058 222.95 442.058 207.66ZM473.975 212.445C484.205 212.445 489.265 206.01 489.265 199.52C489.265 192.92 484.095 186.32 473.975 186.32H448.785L446.035 195.395H473.865C477 195.395 478.54 197.375 478.54 199.355C478.54 201.39 476.945 203.425 473.865 203.425H465.175C449.5 203.425 445.1 219.925 445.1 219.925V229H486.625L489.375 219.925H455.66C455.66 219.87 457.145 212.445 465.285 212.445H473.975ZM522.1 212.445C532.33 212.445 537.39 206.01 537.39 199.52C537.39 192.92 532.22 186.32 522.1 186.32H496.91L494.16 195.395H521.99C525.125 195.395 526.665 197.375 526.665 199.355C526.665 201.39 525.07 203.425 521.99 203.425H513.3C497.625 203.425 493.225 219.925 493.225 219.925V229H534.75L537.5 219.925H503.785C503.785 219.87 505.27 212.445 513.41 212.445H522.1Z" fill="white" fill-opacity="0.75"/>
<path d="M312 205H4V4H899V205H563" stroke="url(#paint2_linear_1473_178)" stroke-width="8"/>
<defs>
<linearGradient id="paint0_linear_1473_178" x1="244.596" y1="152.862" x2="347.21" y2="-38.1672" gradientUnits="userSpaceOnUse">
<stop stop-color="#C5045A"/>
<stop offset="1" stop-color="#7708E8"/>
</linearGradient>
<linearGradient id="paint1_linear_1473_178" x1="654.957" y1="83.1766" x2="629.415" y2="183.386" gradientUnits="userSpaceOnUse">
<stop stop-color="#6500CD"/>
<stop offset="1" stop-color="#DF0565"/>
</linearGradient>
<linearGradient id="paint2_linear_1473_178" x1="19.4939" y1="104.696" x2="845.165" y2="199.248" gradientUnits="userSpaceOnUse">
<stop stop-color="#C5045A"/>
<stop offset="1" stop-color="#5201A6"/>
</linearGradient>
</defs>
</svg>
